<svg id="Camada_2" data-name="Camada 2" xmlns="http://www.w3.org/2000/svg" viewBox="0 0 800 800"><defs><style>.cls-1{fill:none;}</style></defs><title>iconSEAF</title><rect class="cls-1" width="800" height="800"/><path d="M112.35,493.06q-16.41-7-25.94-20.19t-9.82-31.13h42.07q.84,12.06,8.55,19.07t21.17,7q13.74,0,21.59-6.59A21.43,21.43,0,0,0,177.83,444q0-8.69-5.33-14.3a37.38,37.38,0,0,0-13.32-8.83,222.12,222.12,0,0,0-22-7.15,235.33,235.33,0,0,1-31-11.08,54.21,54.21,0,0,1-20.47-16.55Q77.15,375,77.15,356.48q0-17.38,8.69-30.29t24.4-19.77q15.7-6.87,35.9-6.87,30.29,0,49.22,14.72t20.89,41.09H173.07a22.44,22.44,0,0,0-8.55-16.69q-8-6.59-21.17-6.59-11.5,0-18.37,5.89t-6.87,17.11a17.67,17.67,0,0,0,5.19,13,39.43,39.43,0,0,0,12.9,8.41q7.71,3.23,21.73,7.43a229,229,0,0,1,31.13,11.22A56,56,0,0,1,209.81,412q8.69,11.22,8.69,29.45a55.39,55.39,0,0,1-8.13,29.17q-8.14,13.46-23.84,21.46t-37.3,8Q128.75,500.07,112.35,493.06Z" transform="translate(0)"/><path d="M291.69,334v49.08h65.9v31.13h-65.9v51.88H366v32H252.43v-196H366v32Z" transform="translate(0)"/><path d="M521.66,460.81h-78l-12.9,37.3H389.57l70.39-196h45.71l70.39,196H534.56ZM511,429.4l-28.32-81.89L454.35,429.4Z" transform="translate(0)"/><path d="M723.3,302.35V334H641.69v50.2h62.54v31.13H641.69v82.73H602.42V302.35Z" transform="translate(0)"/></svg>